<svg data-name="Layer 1" viewBox="0 0 32 32" xmlns="http://www.w3.org/2000/svg"><path d="M22.399 16c0-1.992 1.747-4.01 5.193-6a.6.6 0 1 0-.6-1.04c-3.445 1.99-6.067 2.495-7.792 1.498-1.725-.995-2.6-3.518-2.6-7.498a.6.6 0 1 0-1.2 0c0 3.98-.874 6.502-2.599 7.498-1.726.998-4.346.493-7.794-1.498a.6.6 0 1 0-.6 1.04c3.447 1.99 5.194 4.008 5.194 6s-1.747 4.01-5.193 6a.6.6 0 0 0 .6 1.04c3.445-1.99 6.067-2.495 7.793-1.498 1.725.995 2.6 3.519 2.6 7.498a.6.6 0 1 0 1.2 0c0-3.98.874-6.503 2.599-7.498 1.722-.995 4.345-.493 7.793 1.497a.6.6 0 1 0 .6-1.039c-3.447-1.99-5.194-4.008-5.194-6Z" fill="#ff0000" class="fill-000000"></path></svg>